<?xml version="1.0" encoding="utf-8"?>
<!-- Generator: Adobe Illustrator 24.0.3, SVG Export Plug-In . SVG Version: 6.00 Build 0)  -->
<svg version="1.1" id="USD" xmlns="http://www.w3.org/2000/svg" xmlns:xlink="http://www.w3.org/1999/xlink" x="0px" y="0px"
	 viewBox="0 0 80 80" style="enable-background:new 0 0 80 80;" xml:space="preserve">
<style type="text/css">
	.st0{fill:#B2E5F6;}
	.st1{fill:#232F3E;}
	.st2{clip-path:url(#SVGID_2_);}
</style>
<title>USD</title>
<path class="st0" d="M79.13,52.73L79.13,52.73c-1.72-2.78-5.36-3.67-8.17-2L56.21,59.3l0,0c-1.09-1.99-3.19-3.23-5.46-3.23H35.9
	c-5.11-4.82-13.08-4.85-18.22-0.07H4.54v20.19h13.54V75.9c3.06,2.53,7.1,3.55,11,2.77l24.54-4.74c1.87-0.35,3.66-1.03,5.29-2
	l18.22-11C79.93,59.21,80.82,55.55,79.13,52.73z"/>
<path class="st1" d="M23.49,77.3c-3.08,0.02-6.09-0.93-8.6-2.72H1.62c-0.88,0-1.6-0.7-1.62-1.58V52.73c0-0.89,0.73-1.62,1.62-1.62
	h12.52c5.63-4.77,13.9-4.71,19.46,0.14h14.2c2.28,0.01,4.45,1.02,5.93,2.75l13.49-7.89c3.54-2.24,8.22-1.19,10.46,2.35
	c2.24,3.54,1.19,8.22-2.35,10.46c-0.11,0.07-0.21,0.13-0.32,0.19l-18.23,11C55,71.17,53.04,71.9,51,72.28L26.42,77
	C25.46,77.19,24.47,77.3,23.49,77.3z M12.15,67.45c0.59,0,1.12,0.32,1.41,0.83c0.52,0.92,1.15,1.77,1.89,2.52
	c2.73,2.69,6.63,3.84,10.38,3.06l24.55-4.73c1.68-0.32,3.29-0.94,4.76-1.82l18.2-11c2.05-1.23,2.72-3.89,1.49-5.94
	s-3.89-2.72-5.94-1.49l-13.59,8c0.12,0.41,0.2,0.84,0.24,1.27c0.43,4.14-2.57,7.84-6.7,8.28c-0.28,0.01-0.55,0.01-0.83,0H35
	c-0.89,0.07-1.67-0.6-1.74-1.49s0.6-1.67,1.49-1.74c0.08-0.01,0.17-0.01,0.25,0h13c2.39,0,4.33-1.94,4.33-4.33
	c0-0.15-0.01-0.3-0.02-0.45c-0.29-2.26-2.23-3.93-4.5-3.9H33c-0.4-0.01-0.78-0.17-1.08-0.44c-4.45-4.23-11.41-4.31-15.95-0.18
	c-0.3,0.31-0.72,0.48-1.15,0.49H3.23v17h8.48c-0.36-0.49-0.69-0.99-1-1.51c-0.43-0.78-0.15-1.76,0.63-2.19c0,0,0,0,0,0
	C11.58,67.53,11.86,67.45,12.15,67.45z"/>
<path class="st0" d="M42.26,5.15c-9.94,0-18,8.06-18,18c0,9.94,8.06,18,18,18c9.91,0,17.96-8.01,18-17.92l0,0
	c0.04-9.94-7.98-18.04-17.92-18.08C42.31,5.15,42.29,5.15,42.26,5.15z"/>
<path class="st1" d="M39,40.4c-10.86,0.02-19.67-8.77-19.69-19.63S28.08,1.1,38.94,1.08C49.8,1.06,58.61,9.85,58.63,20.71
	c0,0.01,0,0.02,0,0.03C58.63,31.59,49.85,40.38,39,40.4z M39,4.31c-9.07-0.02-16.45,7.32-16.47,16.39
	c-0.02,9.07,7.32,16.45,16.39,16.47s16.45-7.32,16.47-16.39c0-0.01,0-0.03,0-0.04C55.39,11.68,48.06,4.33,39,4.31z"/>
<g>
	<defs>
		<path id="SVGID_1_" d="M38.72,15.82c-0.39,0.07-0.74,0.27-1,0.56c-0.23,0.28-0.35,0.64-0.35,1c-0.02,0.37,0.11,0.73,0.35,1
			c0.27,0.28,0.62,0.48,1,0.58V15.82z M40.33,25.9c0.77-0.03,1.36-0.67,1.34-1.44c-0.01-0.78-0.57-1.43-1.34-1.56V25.9z M39.22,31.9
			c-0.19,0.02-0.37-0.04-0.52-0.15c-0.13-0.15-0.18-0.35-0.16-0.54v-2.15c-1.35-0.1-2.67-0.48-3.86-1.14
			c-0.14-0.08-0.28-0.17-0.41-0.26c-0.07-0.07-0.13-0.16-0.16-0.26c-0.02-0.14-0.02-0.29,0-0.43v-1.72c0-0.42,0.16-0.63,0.48-0.63
			c0.17,0.03,0.34,0.1,0.49,0.19c0.61,0.3,1.24,0.56,1.88,0.78c0.52,0.17,1.07,0.29,1.62,0.33v-3.53l-0.91-0.32
			c-1.1-0.35-2.1-0.96-2.91-1.78c-0.62-0.71-0.95-1.63-0.92-2.57c-0.04-1.27,0.45-2.51,1.35-3.41c0.96-0.95,2.23-1.51,3.57-1.6
			v-2.12c-0.02-0.19,0.03-0.39,0.16-0.54c0.15-0.12,0.33-0.17,0.52-0.16h0.43c0.19-0.02,0.39,0.04,0.54,0.16
			c0.11,0.16,0.16,0.35,0.14,0.54v2.14c1.01,0.09,1.99,0.38,2.89,0.84c0.2,0.08,0.37,0.2,0.5,0.37c0.08,0.18,0.12,0.38,0.11,0.58
			v1.67c0,0.42-0.16,0.63-0.48,0.63c-0.25-0.07-0.49-0.16-0.72-0.28c-0.73-0.34-1.5-0.58-2.3-0.7v3.65l0.55,0.19
			c1.21,0.37,2.33,1,3.26,1.85c0.66,0.71,1.02,1.64,1,2.61C45.4,25.4,44.9,26.62,44,27.5c-1,0.93-2.31,1.46-3.67,1.5v2.2
			c0.02,0.19-0.03,0.38-0.14,0.54c-0.15,0.12-0.35,0.17-0.54,0.15L39.22,31.9z"/>
	</defs>
	<clipPath id="SVGID_2_">
		<use xlink:href="#SVGID_1_"  style="overflow:visible;"/>
	</clipPath>
	<g class="st2">
		<rect x="29.61" y="5.71" class="st1" width="19.87" height="30.37"/>
	</g>
</g>
</svg>
