<?xml version="1.0" encoding="utf-8"?>
<!-- Generator: Adobe Illustrator 24.0.3, SVG Export Plug-In . SVG Version: 6.00 Build 0)  -->
<svg version="1.1" id="Layer_1" xmlns="http://www.w3.org/2000/svg" xmlns:xlink="http://www.w3.org/1999/xlink" x="0px" y="0px"
	 viewBox="0 0 80 80" style="enable-background:new 0 0 80 80;" xml:space="preserve">
<style type="text/css">
	.st0{fill:#B2E5F6;}
	.st1{fill:#232F3E;}
	.st2{display:none;}
	.st3{display:inline;}
</style>
<g>
	<path class="st0" d="M78.4,20.77c-3.72-2.65-8.19-4.04-12.75-3.95H24.38c-0.26,0-0.5-0.12-0.66-0.32L14.37,4.67
		c-0.16-0.2-0.4-0.32-0.66-0.32H9.38c-0.46,0-0.85,0.38-0.84,0.85c0,0.1,0.02,0.21,0.06,0.3l4.36,11.31l0,0l2.12,5.5
		c0.1,0.25,0.3,0.43,0.56,0.5l13.94,3.97c-0.05-0.18-0.07-0.38-0.08-0.57c0.01-1.3,1.06-2.36,2.37-2.37h27.05
		c1.3,0,2.37,1.06,2.37,2.37c0,1.3-1.06,2.37-2.37,2.37h10.61c2.05,0.05,4.1-0.24,6.05-0.85c1.69-0.58,4.09-1.69,4.38-3.61
		C80.18,22.8,79.56,21.47,78.4,20.77z"/>
	<path class="st0" d="M46.53,30.84h-3.67c-0.46,0-0.85,0.38-0.85,0.85v2.44c0,0.43,0.33,0.8,0.76,0.85l2.99,0.31
		c0.43,0.04,0.76,0.41,0.76,0.85v0.55c0,0.43,0.33,0.8,0.76,0.85l12.22,1.21c0.46,0.05,0.88-0.29,0.93-0.76
		c0-0.03,0.01-0.06,0.01-0.09v-6.2c0-0.46-0.38-0.85-0.85-0.85L46.53,30.84L46.53,30.84z"/>
	<path class="st0" d="M30.49,55.03h4.45c0.46,0,0.85,0.38,0.85,0.85v14.06c0,0.46-0.38,0.85-0.85,0.85H24.57
		c-0.46,0-0.85-0.38-0.85-0.85v-8.15C23.73,58.06,26.75,55.03,30.49,55.03z"/>
	<path class="st0" d="M41.68,64.67h-2.87c-0.94,0-1.69-0.76-1.69-1.69v-2.87c0-0.94,0.76-1.69,1.69-1.69h2.87
		c0.94,0,1.69,0.76,1.69,1.69v2.87C43.37,63.91,42.61,64.67,41.68,64.67z"/>
	<path class="st0" d="M41.68,56.33h-2.87c-0.94,0-1.69-0.76-1.69-1.69v-2.87c0-0.94,0.76-1.69,1.69-1.69h2.87
		c0.94,0,1.69,0.76,1.69,1.69v2.87C43.37,55.57,42.61,56.33,41.68,56.33z"/>
	<path class="st0" d="M53.88,64.9h-6.82c-0.94,0-1.69-0.76-1.69-1.69V51.75c0-0.94,0.76-1.69,1.69-1.69h6.82
		c0.94,0,1.69,0.76,1.69,1.69v11.46C55.58,64.14,54.82,64.9,53.88,64.9z"/>
	<path class="st1" d="M76.07,18.5l-0.11-0.05c-0.33-0.39-0.7-0.74-1.11-1.04c-3.93-2.83-8.68-4.32-13.52-4.22H26.54
		c-3.95,0.01-7.7-1.8-10.14-4.91l-5.62-7.1c-0.24-0.3-0.6-0.48-0.99-0.48H3.87c-0.7,0.01-1.26,0.58-1.26,1.28
		c0,0.14,0.02,0.28,0.07,0.41l2.19,5.66H3.64C1.63,8.06,0,9.68,0,11.69s1.62,3.63,3.63,3.64l0,0h3.98l2.09,5.42
		c0.14,0.38,0.46,0.66,0.85,0.76l13.73,3.9c1.32,0.37,2.66,0.69,4.01,0.95c0.09,1.94,1.68,3.46,3.62,3.46h6.58v2.78
		c0,0.65,0.5,1.19,1.14,1.26L43,34.21v0.93c0,0.65,0.5,1.19,1.14,1.26l13.93,1.49h0.13c0.7,0,1.26-0.57,1.26-1.26v-6.82
		c1.32-0.18,2.43-1.07,2.9-2.33h2.86c2.19,0.06,4.38-0.24,6.46-0.9c3.13-1.06,4.93-2.66,5.22-4.62
		C77.13,20.74,76.83,19.49,76.07,18.5z M3.64,12.82c-0.61,0-1.1-0.49-1.1-1.1s0.49-1.1,1.1-1.1h5.54c0.61,0,1.1,0.49,1.1,1.1
		c0,0.61-0.49,1.1-1.1,1.1H3.64z M41.04,31.5v-1.64h1.98v1.84L41.04,31.5z M56.92,35.22l-11.38-1.18v-4.18h11.38V35.22z
		 M58.95,27.33H31.9c-0.61,0-1.1-0.49-1.1-1.1s0.49-1.1,1.1-1.1h27.05c0.61,0,1.1,0.49,1.1,1.1C60.05,26.84,59.56,27.33,58.95,27.33
		z M74.38,21.6c-0.14,0.94-1.42,1.89-3.53,2.59c-1.82,0.56-3.74,0.82-5.65,0.76h-2.86c-0.53-1.42-1.87-2.36-3.38-2.37H31.92
		c-1.1,0.01-2.14,0.51-2.82,1.38c-1.38-0.27-2.74-0.58-4.1-0.95L11.84,19.3l-1.58-4.1c1.91-0.61,2.97-2.64,2.36-4.55
		c-0.48-1.51-1.89-2.54-3.47-2.53H7.56L5.69,3.24h3.49l5.19,6.59c2.94,3.73,7.42,5.9,12.17,5.87h34.79
		c3.35-0.05,6.67,0.72,9.67,2.23h-3.69c-0.7,0-1.26,0.57-1.26,1.26s0.57,1.26,1.26,1.26h6.97C74.42,20.83,74.46,21.22,74.38,21.6z"
		/>
	<path class="st1" d="M32.91,68.93h26.88c0.7,0,1.26-0.57,1.26-1.26V46.53c0-0.7-0.57-1.26-1.26-1.26H32.91
		c-0.7,0-1.26,0.57-1.26,1.26v4.12H29.3c-5.37,0.01-9.71,4.35-9.72,9.72v7.3c0,0.7,0.57,1.26,1.26,1.26H32.91z M34.18,47.8h24.34
		v18.59H34.18V47.8z M22.12,60.36c0.01-3.97,3.22-7.18,7.18-7.18h2.34V66.4h-9.52V60.36z"/>
	<path class="st1" d="M70.23,76.77H55.99c1.21-1.89,1.12-4.32-0.2-6.12c-0.46-0.54-1.26-0.6-1.78-0.14
		c-0.49,0.42-0.59,1.12-0.24,1.66c0.38,0.5,0.58,1.1,0.58,1.74c0,1.61-1.3,2.9-2.9,2.9c-1.61,0-2.9-1.3-2.9-2.9
		c-0.02-0.62,0.15-1.22,0.5-1.74c0.38-0.58,0.22-1.38-0.37-1.75c-0.54-0.35-1.25-0.25-1.66,0.24c-1.32,1.8-1.4,4.23-0.19,6.12h-12.4
		c1.22-1.9,1.12-4.36-0.24-6.16c-0.38-0.58-1.17-0.75-1.75-0.37c-0.58,0.38-0.75,1.17-0.37,1.75c0.03,0.05,0.06,0.09,0.1,0.13
		c0.38,0.5,0.58,1.1,0.58,1.74c0,1.61-1.3,2.9-2.9,2.9c-1.61,0-2.9-1.3-2.9-2.9l0,0c0-0.62,0.21-1.23,0.58-1.74
		c0.38-0.58,0.22-1.38-0.37-1.75c-0.54-0.35-1.25-0.25-1.66,0.24c-1.36,1.8-1.46,4.26-0.25,6.16H10.42c-0.7,0-1.26,0.57-1.26,1.26
		c0,0.7,0.57,1.26,1.26,1.26h59.8c0.7,0,1.26-0.57,1.26-1.26S70.92,76.77,70.23,76.77z"/>
</g>
<g id="Pound" class="st2">
	<g class="st3">
		<g>
			<g>
				<defs>
					<path id="SVGID_1_" d="M141.72-254.63h0.68c4.01-0.01,18.46-0.15,18.49,0.75c0.3,0.07,0.59,0.24,0.81,0.49
						c0.59,0.66,0.54,1.68-0.12,2.27c-3.66,3.3-5.83,7.42-6.52,12.42c-0.09,0.68-0.59,1.19-1.22,1.34
						c-0.09,0.06-0.18,0.12-0.28,0.16c-3.63,1.63-7.5,2.45-11.5,2.45s-7.87-0.82-11.5-2.45c-0.04-0.02-0.08-0.06-0.13-0.13
						c-0.71-0.09-1.29-0.64-1.39-1.37c-0.69-5-2.86-9.11-6.52-12.42c-0.66-0.59-0.71-1.61-0.12-2.27c0.49-0.55,1.27-0.68,1.9-0.37
						C125.18-254.8,137.91-254.64,141.72-254.63z"/>
				</defs>
				<clipPath id="SVGID_2_">
					<use xlink:href="#SVGID_1_"  style="overflow:visible;"/>
				</clipPath>
			</g>
		</g>
		<g>
			<g>
				<defs>
					<ellipse id="SVGID_3_" cx="142.24" cy="-268.56" rx="26.65" ry="26.76"/>
				</defs>
				<clipPath id="SVGID_4_">
					<use xlink:href="#SVGID_3_"  style="overflow:visible;"/>
				</clipPath>
			</g>
		</g>
		<g>
			<g>
				<defs>
					<path id="SVGID_5_" d="M139.36-243.26c-15.58,0-28.25-12.73-28.25-28.37S123.78-300,139.36-300s28.25,12.73,28.25,28.37
						S154.93-243.26,139.36-243.26z M139.36-296.79c-13.81,0-25.05,11.29-25.05,25.16s11.24,25.16,25.05,25.16
						s25.05-11.29,25.05-25.16S153.17-296.79,139.36-296.79z"/>
				</defs>
				<clipPath id="SVGID_6_">
					<use xlink:href="#SVGID_5_"  style="overflow:visible;"/>
				</clipPath>
			</g>
		</g>
		<g>
			<g>
				<defs>
					<path id="SVGID_7_" d="M139.36-234.78c-4,0-7.87-0.82-11.5-2.45c-0.81-0.36-1.17-1.31-0.81-2.12s1.3-1.17,2.11-0.81
						c3.21,1.44,6.64,2.17,10.19,2.17s6.98-0.73,10.19-2.17c0.81-0.36,1.75,0,2.11,0.81s0,1.76-0.81,2.12
						C147.23-235.6,143.36-234.78,139.36-234.78"/>
				</defs>
				<clipPath id="SVGID_8_">
					<use xlink:href="#SVGID_7_"  style="overflow:visible;"/>
				</clipPath>
			</g>
		</g>
		<g>
			<g>
				<defs>
					<path id="SVGID_9_" d="M139.36-227.39c-3.43,0-6.74-0.82-9.85-2.45c-0.69-0.36-1-1.31-0.69-2.12s1.12-1.18,1.81-0.81
						c2.75,1.44,5.69,2.17,8.73,2.17s5.98-0.73,8.73-2.17c0.69-0.36,1.5,0,1.81,0.81s0,1.76-0.69,2.12
						C146.1-228.21,142.78-227.39,139.36-227.39"/>
				</defs>
				<clipPath id="SVGID_10_">
					<use xlink:href="#SVGID_9_"  style="overflow:visible;"/>
				</clipPath>
			</g>
		</g>
		<g>
			<g>
				<defs>
					<path id="SVGID_11_" d="M139.36-220c-2.38,0-4.75-0.3-7.06-0.9c-0.86-0.22-1.37-1.1-1.15-1.96s1.09-1.37,1.95-1.15
						c4.1,1.06,8.43,1.06,12.53,0c0.85-0.22,1.73,0.3,1.95,1.15c0.22,0.86-0.29,1.73-1.15,1.96C144.11-220.3,141.73-220,139.36-220"
						/>
				</defs>
				<clipPath id="SVGID_12_">
					<use xlink:href="#SVGID_11_"  style="overflow:visible;"/>
				</clipPath>
			</g>
		</g>
		<g>
			<g>
				<defs>
					<path id="SVGID_13_" d="M129.39-239.11c-0.84-5.79-3.5-10.65-7.95-14.49c-0.69-0.6-1.76-0.54-2.38,0.12
						c-0.62,0.67-0.56,1.69,0.13,2.29c3.85,3.33,6.13,7.49,6.86,12.53c0.13,0.89,0.98,1.5,1.9,1.38
						C128.88-237.41,129.52-238.22,129.39-239.11z"/>
				</defs>
				<clipPath id="SVGID_14_">
					<use xlink:href="#SVGID_13_"  style="overflow:visible;"/>
				</clipPath>
			</g>
		</g>
		<g>
			<g>
				<defs>
					<path id="SVGID_15_" d="M148.57-239.11c0.84-5.79,3.5-10.65,7.95-14.49c0.69-0.6,1.76-0.54,2.38,0.12
						c0.62,0.67,0.56,1.69-0.13,2.29c-3.85,3.33-6.13,7.49-6.86,12.53c-0.13,0.89-0.98,1.5-1.9,1.38S148.44-238.22,148.57-239.11z"
						/>
				</defs>
				<clipPath id="SVGID_16_">
					<use xlink:href="#SVGID_15_"  style="overflow:visible;"/>
				</clipPath>
			</g>
		</g>
	</g>
</g>
<g id="Yen" class="st2">
	<g class="st3">
		<g>
			<g>
				<defs>
					<path id="SVGID_17_" d="M141.72-254.63h0.68c4.01-0.01,18.46-0.15,18.49,0.75c0.3,0.07,0.59,0.24,0.81,0.49
						c0.59,0.66,0.54,1.68-0.12,2.27c-3.66,3.3-5.83,7.42-6.52,12.42c-0.09,0.68-0.59,1.19-1.22,1.34
						c-0.09,0.06-0.18,0.12-0.28,0.16c-3.63,1.63-7.5,2.45-11.5,2.45s-7.87-0.82-11.5-2.45c-0.04-0.02-0.08-0.06-0.13-0.13
						c-0.71-0.09-1.29-0.64-1.39-1.37c-0.69-5-2.86-9.11-6.52-12.42c-0.66-0.59-0.71-1.61-0.12-2.27c0.49-0.55,1.27-0.68,1.9-0.37
						C125.18-254.8,137.91-254.64,141.72-254.63z"/>
				</defs>
				<clipPath id="SVGID_18_">
					<use xlink:href="#SVGID_17_"  style="overflow:visible;"/>
				</clipPath>
			</g>
		</g>
		<g>
			<g>
				<defs>
					<ellipse id="SVGID_19_" cx="142.24" cy="-268.56" rx="26.65" ry="26.76"/>
				</defs>
				<clipPath id="SVGID_20_">
					<use xlink:href="#SVGID_19_"  style="overflow:visible;"/>
				</clipPath>
			</g>
		</g>
		<g>
			<g>
				<defs>
					<path id="SVGID_21_" d="M139.36-243.26c-15.58,0-28.25-12.73-28.25-28.37S123.78-300,139.36-300s28.25,12.73,28.25,28.37
						S154.93-243.26,139.36-243.26z M139.36-296.79c-13.81,0-25.05,11.29-25.05,25.16s11.24,25.16,25.05,25.16
						s25.05-11.29,25.05-25.16S153.17-296.79,139.36-296.79z"/>
				</defs>
				<clipPath id="SVGID_22_">
					<use xlink:href="#SVGID_21_"  style="overflow:visible;"/>
				</clipPath>
			</g>
		</g>
		<g>
			<g>
				<defs>
					<path id="SVGID_23_" d="M139.36-234.78c-4,0-7.87-0.82-11.5-2.45c-0.81-0.36-1.17-1.31-0.81-2.12s1.3-1.17,2.11-0.81
						c3.21,1.44,6.64,2.17,10.19,2.17s6.98-0.73,10.19-2.17c0.81-0.36,1.75,0,2.11,0.81s0,1.76-0.81,2.12
						C147.23-235.6,143.36-234.78,139.36-234.78"/>
				</defs>
				<clipPath id="SVGID_24_">
					<use xlink:href="#SVGID_23_"  style="overflow:visible;"/>
				</clipPath>
			</g>
		</g>
		<g>
			<g>
				<defs>
					<path id="SVGID_25_" d="M139.36-227.39c-3.43,0-6.74-0.82-9.85-2.45c-0.69-0.36-1-1.31-0.69-2.12s1.12-1.18,1.81-0.81
						c2.75,1.44,5.69,2.17,8.73,2.17s5.98-0.73,8.73-2.17c0.69-0.36,1.5,0,1.81,0.81s0,1.76-0.69,2.12
						C146.1-228.21,142.78-227.39,139.36-227.39"/>
				</defs>
				<clipPath id="SVGID_26_">
					<use xlink:href="#SVGID_25_"  style="overflow:visible;"/>
				</clipPath>
			</g>
		</g>
		<g>
			<g>
				<defs>
					<path id="SVGID_27_" d="M139.36-220c-2.38,0-4.75-0.3-7.06-0.9c-0.86-0.22-1.37-1.1-1.15-1.96s1.09-1.37,1.95-1.15
						c4.1,1.06,8.43,1.06,12.53,0c0.85-0.22,1.73,0.3,1.95,1.15c0.22,0.86-0.29,1.73-1.15,1.96C144.11-220.3,141.73-220,139.36-220"
						/>
				</defs>
				<clipPath id="SVGID_28_">
					<use xlink:href="#SVGID_27_"  style="overflow:visible;"/>
				</clipPath>
			</g>
		</g>
		<g>
			<g>
				<defs>
					<path id="SVGID_29_" d="M129.39-239.11c-0.84-5.79-3.5-10.65-7.95-14.49c-0.69-0.6-1.76-0.54-2.38,0.12
						c-0.62,0.67-0.56,1.69,0.13,2.29c3.85,3.33,6.13,7.49,6.86,12.53c0.13,0.89,0.98,1.5,1.9,1.38
						C128.88-237.41,129.52-238.22,129.39-239.11z"/>
				</defs>
				<clipPath id="SVGID_30_">
					<use xlink:href="#SVGID_29_"  style="overflow:visible;"/>
				</clipPath>
			</g>
		</g>
		<g>
			<g>
				<defs>
					<path id="SVGID_31_" d="M148.57-239.11c0.84-5.79,3.5-10.65,7.95-14.49c0.69-0.6,1.76-0.54,2.38,0.12
						c0.62,0.67,0.56,1.69-0.13,2.29c-3.85,3.33-6.13,7.49-6.86,12.53c-0.13,0.89-0.98,1.5-1.9,1.38S148.44-238.22,148.57-239.11z"
						/>
				</defs>
				<clipPath id="SVGID_32_">
					<use xlink:href="#SVGID_31_"  style="overflow:visible;"/>
				</clipPath>
			</g>
		</g>
	</g>
</g>
<g id="Euro" class="st2">
	<g class="st3">
		<g>
			<g>
				<defs>
					<path id="SVGID_33_" d="M141.72-254.63h0.68c4.01-0.01,18.46-0.15,18.49,0.75c0.3,0.07,0.59,0.24,0.81,0.49
						c0.59,0.66,0.54,1.68-0.12,2.27c-3.66,3.3-5.83,7.42-6.52,12.42c-0.09,0.68-0.59,1.19-1.22,1.34
						c-0.09,0.06-0.18,0.12-0.28,0.16c-3.63,1.63-7.5,2.45-11.5,2.45s-7.87-0.82-11.5-2.45c-0.04-0.02-0.08-0.06-0.13-0.13
						c-0.71-0.09-1.29-0.64-1.39-1.37c-0.69-5-2.86-9.11-6.52-12.42c-0.66-0.59-0.71-1.61-0.12-2.27c0.49-0.55,1.27-0.68,1.9-0.37
						C125.18-254.8,137.91-254.64,141.72-254.63z"/>
				</defs>
				<clipPath id="SVGID_34_">
					<use xlink:href="#SVGID_33_"  style="overflow:visible;"/>
				</clipPath>
			</g>
		</g>
		<g>
			<g>
				<defs>
					<ellipse id="SVGID_35_" cx="142.24" cy="-268.56" rx="26.65" ry="26.76"/>
				</defs>
				<clipPath id="SVGID_36_">
					<use xlink:href="#SVGID_35_"  style="overflow:visible;"/>
				</clipPath>
			</g>
		</g>
		<g>
			<g>
				<defs>
					<path id="SVGID_37_" d="M139.36-243.26c-15.58,0-28.25-12.73-28.25-28.37S123.78-300,139.36-300s28.25,12.73,28.25,28.37
						S154.93-243.26,139.36-243.26z M139.36-296.79c-13.81,0-25.05,11.29-25.05,25.16s11.24,25.16,25.05,25.16
						s25.05-11.29,25.05-25.16S153.17-296.79,139.36-296.79z"/>
				</defs>
				<clipPath id="SVGID_38_">
					<use xlink:href="#SVGID_37_"  style="overflow:visible;"/>
				</clipPath>
			</g>
		</g>
		<g>
			<g>
				<defs>
					<path id="SVGID_39_" d="M139.36-234.78c-4,0-7.87-0.82-11.5-2.45c-0.81-0.36-1.17-1.31-0.81-2.12s1.3-1.17,2.11-0.81
						c3.21,1.44,6.64,2.17,10.19,2.17s6.98-0.73,10.19-2.17c0.81-0.36,1.75,0,2.11,0.81s0,1.76-0.81,2.12
						C147.23-235.6,143.36-234.78,139.36-234.78"/>
				</defs>
				<clipPath id="SVGID_40_">
					<use xlink:href="#SVGID_39_"  style="overflow:visible;"/>
				</clipPath>
			</g>
		</g>
		<g>
			<g>
				<defs>
					<path id="SVGID_41_" d="M139.36-227.39c-3.43,0-6.74-0.82-9.85-2.45c-0.69-0.36-1-1.31-0.69-2.12s1.12-1.18,1.81-0.81
						c2.75,1.44,5.69,2.17,8.73,2.17s5.98-0.73,8.73-2.17c0.69-0.36,1.5,0,1.81,0.81s0,1.76-0.69,2.12
						C146.1-228.21,142.78-227.39,139.36-227.39"/>
				</defs>
				<clipPath id="SVGID_42_">
					<use xlink:href="#SVGID_41_"  style="overflow:visible;"/>
				</clipPath>
			</g>
		</g>
		<g>
			<g>
				<defs>
					<path id="SVGID_43_" d="M139.36-220c-2.38,0-4.75-0.3-7.06-0.9c-0.86-0.22-1.37-1.1-1.15-1.96s1.09-1.37,1.95-1.15
						c4.1,1.06,8.43,1.06,12.53,0c0.85-0.22,1.73,0.3,1.95,1.15c0.22,0.86-0.29,1.73-1.15,1.96C144.11-220.3,141.73-220,139.36-220"
						/>
				</defs>
				<clipPath id="SVGID_44_">
					<use xlink:href="#SVGID_43_"  style="overflow:visible;"/>
				</clipPath>
			</g>
		</g>
		<g>
			<g>
				<defs>
					<path id="SVGID_45_" d="M129.39-239.11c-0.84-5.79-3.5-10.65-7.95-14.49c-0.69-0.6-1.76-0.54-2.38,0.12
						c-0.62,0.67-0.56,1.69,0.13,2.29c3.85,3.33,6.13,7.49,6.86,12.53c0.13,0.89,0.98,1.5,1.9,1.38
						C128.88-237.41,129.52-238.22,129.39-239.11z"/>
				</defs>
				<clipPath id="SVGID_46_">
					<use xlink:href="#SVGID_45_"  style="overflow:visible;"/>
				</clipPath>
			</g>
		</g>
		<g>
			<g>
				<defs>
					<path id="SVGID_47_" d="M148.57-239.11c0.84-5.79,3.5-10.65,7.95-14.49c0.69-0.6,1.76-0.54,2.38,0.12
						c0.62,0.67,0.56,1.69-0.13,2.29c-3.85,3.33-6.13,7.49-6.86,12.53c-0.13,0.89-0.98,1.5-1.9,1.38S148.44-238.22,148.57-239.11z"
						/>
				</defs>
				<clipPath id="SVGID_48_">
					<use xlink:href="#SVGID_47_"  style="overflow:visible;"/>
				</clipPath>
			</g>
		</g>
	</g>
</g>
<g id="Rupee" class="st2">
	<g class="st3">
		<g>
			<g>
				<defs>
					<path id="SVGID_49_" d="M141.72-254.63h0.68c4.01-0.01,18.46-0.15,18.49,0.75c0.3,0.07,0.59,0.24,0.81,0.49
						c0.59,0.66,0.54,1.68-0.12,2.27c-3.66,3.3-5.83,7.42-6.52,12.42c-0.09,0.68-0.59,1.19-1.22,1.34
						c-0.09,0.06-0.18,0.12-0.28,0.16c-3.63,1.63-7.5,2.45-11.5,2.45s-7.87-0.82-11.5-2.45c-0.04-0.02-0.08-0.06-0.13-0.13
						c-0.71-0.09-1.29-0.64-1.39-1.37c-0.69-5-2.86-9.11-6.52-12.42c-0.66-0.59-0.71-1.61-0.12-2.27c0.49-0.55,1.27-0.68,1.9-0.37
						C125.18-254.8,137.91-254.64,141.72-254.63z"/>
				</defs>
				<clipPath id="SVGID_50_">
					<use xlink:href="#SVGID_49_"  style="overflow:visible;"/>
				</clipPath>
			</g>
		</g>
		<g>
			<g>
				<defs>
					<ellipse id="SVGID_51_" cx="142.24" cy="-268.56" rx="26.65" ry="26.76"/>
				</defs>
				<clipPath id="SVGID_52_">
					<use xlink:href="#SVGID_51_"  style="overflow:visible;"/>
				</clipPath>
			</g>
		</g>
		<g>
			<g>
				<defs>
					<path id="SVGID_53_" d="M139.36-243.26c-15.58,0-28.25-12.73-28.25-28.37S123.78-300,139.36-300s28.25,12.73,28.25,28.37
						S154.93-243.26,139.36-243.26z M139.36-296.79c-13.81,0-25.05,11.29-25.05,25.16s11.24,25.16,25.05,25.16
						s25.05-11.29,25.05-25.16S153.17-296.79,139.36-296.79z"/>
				</defs>
				<clipPath id="SVGID_54_">
					<use xlink:href="#SVGID_53_"  style="overflow:visible;"/>
				</clipPath>
			</g>
		</g>
		<g>
			<g>
				<defs>
					<path id="SVGID_55_" d="M139.36-234.78c-4,0-7.87-0.82-11.5-2.45c-0.81-0.36-1.17-1.31-0.81-2.12s1.3-1.17,2.11-0.81
						c3.21,1.44,6.64,2.17,10.19,2.17s6.98-0.73,10.19-2.17c0.81-0.36,1.75,0,2.11,0.81s0,1.76-0.81,2.12
						C147.23-235.6,143.36-234.78,139.36-234.78"/>
				</defs>
				<clipPath id="SVGID_56_">
					<use xlink:href="#SVGID_55_"  style="overflow:visible;"/>
				</clipPath>
			</g>
		</g>
		<g>
			<g>
				<defs>
					<path id="SVGID_57_" d="M139.36-227.39c-3.43,0-6.74-0.82-9.85-2.45c-0.69-0.36-1-1.31-0.69-2.12s1.12-1.18,1.81-0.81
						c2.75,1.44,5.69,2.17,8.73,2.17s5.98-0.73,8.73-2.17c0.69-0.36,1.5,0,1.81,0.81s0,1.76-0.69,2.12
						C146.1-228.21,142.78-227.39,139.36-227.39"/>
				</defs>
				<clipPath id="SVGID_58_">
					<use xlink:href="#SVGID_57_"  style="overflow:visible;"/>
				</clipPath>
			</g>
		</g>
		<g>
			<g>
				<defs>
					<path id="SVGID_59_" d="M139.36-220c-2.38,0-4.75-0.3-7.06-0.9c-0.86-0.22-1.37-1.1-1.15-1.96s1.09-1.37,1.95-1.15
						c4.1,1.06,8.43,1.06,12.53,0c0.85-0.22,1.73,0.3,1.95,1.15c0.22,0.86-0.29,1.73-1.15,1.96C144.11-220.3,141.73-220,139.36-220"
						/>
				</defs>
				<clipPath id="SVGID_60_">
					<use xlink:href="#SVGID_59_"  style="overflow:visible;"/>
				</clipPath>
			</g>
		</g>
		<g>
			<g>
				<defs>
					<path id="SVGID_61_" d="M129.39-239.11c-0.84-5.79-3.5-10.65-7.95-14.49c-0.69-0.6-1.76-0.54-2.38,0.12
						c-0.62,0.67-0.56,1.69,0.13,2.29c3.85,3.33,6.13,7.49,6.86,12.53c0.13,0.89,0.98,1.5,1.9,1.38
						C128.88-237.41,129.52-238.22,129.39-239.11z"/>
				</defs>
				<clipPath id="SVGID_62_">
					<use xlink:href="#SVGID_61_"  style="overflow:visible;"/>
				</clipPath>
			</g>
		</g>
		<g>
			<g>
				<defs>
					<path id="SVGID_63_" d="M148.57-239.11c0.84-5.79,3.5-10.65,7.95-14.49c0.69-0.6,1.76-0.54,2.38,0.12
						c0.62,0.67,0.56,1.69-0.13,2.29c-3.85,3.33-6.13,7.49-6.86,12.53c-0.13,0.89-0.98,1.5-1.9,1.38S148.44-238.22,148.57-239.11z"
						/>
				</defs>
				<clipPath id="SVGID_64_">
					<use xlink:href="#SVGID_63_"  style="overflow:visible;"/>
				</clipPath>
			</g>
		</g>
	</g>
</g>
</svg>
